<svg width="13" height="10" viewBox="0 0 13 10" fill="none" xmlns="http://www.w3.org/2000/svg">
<path d="M2.75 10C2.0625 10 1.47396 9.75521 0.984375 9.26562C0.494792 8.77604 0.25 8.1875 0.25 7.5V2.5C0.25 1.8125 0.494792 1.22396 0.984375 0.734375C1.47396 0.244792 2.0625 0 2.75 0H10.25C10.9375 0 11.526 0.244792 12.0156 0.734375C12.5052 1.22396 12.75 1.8125 12.75 2.5V7.5C12.75 8.1875 12.5052 8.77604 12.0156 9.26562C11.526 9.75521 10.9375 10 10.25 10H2.75ZM2.75 2.5H10.25C10.4792 2.5 10.6979 2.52604 10.9063 2.57812C11.1146 2.63021 11.3125 2.71354 11.5 2.82812V2.5C11.5 2.15625 11.3776 1.86198 11.1328 1.61719C10.888 1.3724 10.5938 1.25 10.25 1.25H2.75C2.40625 1.25 2.11198 1.3724 1.86719 1.61719C1.6224 1.86198 1.5 2.15625 1.5 2.5V2.82812C1.6875 2.71354 1.88542 2.63021 2.09375 2.57812C2.30208 2.52604 2.52083 2.5 2.75 2.5ZM1.59375 4.53125L8.54688 6.21875C8.64062 6.23958 8.73438 6.23958 8.82812 6.21875C8.92188 6.19792 9.01042 6.15625 9.09375 6.09375L11.2656 4.28125C11.151 4.125 11.0052 3.9974 10.8281 3.89844C10.651 3.79948 10.4583 3.75 10.25 3.75H2.75C2.47917 3.75 2.24219 3.82031 2.03906 3.96094C1.83594 4.10156 1.6875 4.29167 1.59375 4.53125Z" fill="#18181B"/>
</svg>
